<svg width="220" height="260" viewBox="0 0 220 260" fill="none" xmlns="http://www.w3.org/2000/svg">
  <defs>
    <linearGradient id="metal" x1="0" y1="0" x2="1" y2="1">
      <stop offset="0%" stop-color="#8AE8FF"/>
      <stop offset="100%" stop-color="#3A5CFF"/>
    </linearGradient>
    <filter id="glowR" x="-40%" y="-40%" width="180%" height="180%">
      <feGaussianBlur stdDeviation="3" result="b"/>
      <feMerge><feMergeNode in="b"/><feMergeNode in="SourceGraphic"/></feMerge>
    </filter>
  </defs>
  <rect width="220" height="260" rx="16" fill="#090414"/>
  <rect x="58" y="34" width="104" height="78" rx="14" fill="url(#metal)"/>
  <rect x="96" y="14" width="28" height="20" rx="8" fill="#7B8AFF"/>
  <circle cx="90" cy="73" r="10" fill="#FF35D7" filter="url(#glowR)"/>
  <circle cx="130" cy="73" r="10" fill="#00EEFF" filter="url(#glowR)"/>
  <rect x="84" y="92" width="52" height="8" rx="4" fill="#141B37"/>
  <rect x="66" y="118" width="88" height="94" rx="14" fill="#112449"/>
  <rect x="42" y="128" width="20" height="68" rx="10" fill="#5C7CE8"/>
  <rect x="158" y="128" width="20" height="68" rx="10" fill="#5C7CE8"/>
  <rect x="76" y="212" width="24" height="34" rx="8" fill="#5B78DB"/>
  <rect x="120" y="212" width="24" height="34" rx="8" fill="#5B78DB"/>
  <rect x="74" y="246" width="30" height="8" rx="4" fill="#00EEFF" filter="url(#glowR)"/>
  <rect x="118" y="246" width="30" height="8" rx="4" fill="#00EEFF" filter="url(#glowR)"/>
</svg>
